HIERARCHY
ROOT hips
{
  OFFSET 0 9.313263304106702 1.2146308026317778
  CHANNELS 6 Xposition Yposition Zposition Yrotation Xrotation Zrotation
  JOINT spine
  {
    OFFSET -6.402521e-31 0.5173342420023708 0
    CHANNELS 3 Yrotation Xrotation Zrotation
    JOINT chest
    {
      OFFSET 0 1.130544299341115 0
      CHANNELS 3 Yrotation Xrotation Zrotation
      JOINT upperChest
      {
        OFFSET 0 1.0863555061129995 0
        CHANNELS 3 Yrotation Xrotation Zrotation
        JOINT neck
        {
          OFFSET 0 1.3773706506454462 0
          CHANNELS 3 Yrotation Xrotation Zrotation
          JOINT head
          {
            OFFSET 0 0.7374408940073979 0
            CHANNELS 3 Yrotation Xrotation Zrotation
            JOINT leftEye
            {
              OFFSET 0.25066580148932727 0.6408406698778757 0.15963719178883284
              CHANNELS 3 Yrotation Xrotation Zrotation
              End Site
              {
                OFFSET 0.25066580148932727 0.6408406698778757 0.15963719178883284
              }
            }
            JOINT rightEye
            {
              OFFSET -0.25066576739704244 0.6408406384191823 0.15963727561643756
              CHANNELS 3 Yrotation Xrotation Zrotation
              End Site
              {
                OFFSET -0.25066576739704244 0.6408406384191823 0.15963727561643756
              }
            }
          }
        }
        JOINT leftShoulder
        {
          OFFSET 0.3761817444281191 1.0539491987447769 0
          CHANNELS 3 Yrotation Xrotation Zrotation
          JOINT leftUpperArm
          {
            OFFSET 0.8702844380000002 0 0
            CHANNELS 3 Yrotation Xrotation Zrotation
            JOINT leftLowerArm
            {
              OFFSET 2.198527310000323 0 0
              CHANNELS 3 Yrotation Xrotation Zrotation
              JOINT leftHand
              {
                OFFSET 2.146852313968281 0 0
                CHANNELS 3 Yrotation Xrotation Zrotation
                JOINT leftIndexProximal
                {
                  OFFSET 0.6585177834681599 0.07380250427007962 0.18382213159631788
                  CHANNELS 3 Yrotation Xrotation Zrotation
                  JOINT leftIndexIntermediate
                  {
                    OFFSET 0.3323021288626682 -0.009606893929485771 -0.012820872253340998
                    CHANNELS 3 Yrotation Xrotation Zrotation
                    JOINT leftIndexDistal
                    {
                      OFFSET 0.2045908926985518 -0.0071133989147997845 -0.006828784783599051
                      CHANNELS 3 Yrotation Xrotation Zrotation
                      End Site
                      {
                        OFFSET 0.2045908926985518 -0.0071133989147997845 -0.006828784783599051
                      }
                    }
                  }
                }
                JOINT leftLittleProximal
                {
                  OFFSET 0.6110054258835662 0.07380246363125398 -0.29175655876064077
                  CHANNELS 3 Yrotation Xrotation Zrotation
                  JOINT leftLittleIntermediate
                  {
                    OFFSET 0.3144281999999998 -2.5124724523095665e-9 1.8658118799974588e-7
                    CHANNELS 3 Yrotation Xrotation Zrotation
                    JOINT leftLittleDistal
                    {
                      OFFSET 0.18116185580251631 0.002815456192251098 0.0034826415518049436
                      CHANNELS 3 Yrotation Xrotation Zrotation
                      End Site
                      {
                        OFFSET 0.18116185580251631 0.002815456192251098 0.0034826415518049436
                      }
                    }
                  }
                }
                JOINT leftMiddleProximal
                {
                  OFFSET 0.6637478005691111 0.07380246480054087 0.02046981859247815
                  CHANNELS 3 Yrotation Xrotation Zrotation
                  JOINT leftMiddleIntermediate
                  {
                    OFFSET 0.3705733999999994 -2.9611069152224445e-9 9.35054791928458e-8
                    CHANNELS 3 Yrotation Xrotation Zrotation
                    JOINT leftMiddleDistal
                    {
                      OFFSET 0.22861063500000056 -1.82673876025774e-9 -1.6740782024515788e-7
                      CHANNELS 3 Yrotation Xrotation Zrotation
                      End Site
                      {
                        OFFSET 0.22861063500000056 -1.82673876025774e-9 -1.6740782024515788e-7
                      }
                    }
                  }
                }
                JOINT leftRingProximal
                {
                  OFFSET 0.6561845547265777 0.07380246406440083 -0.13588087571513918
                  CHANNELS 3 Yrotation Xrotation Zrotation
                  JOINT leftRingIntermediate
                  {
                    OFFSET 0.3437531000000005 -2.746796123886952e-9 1.4935781944558357e-7
                    CHANNELS 3 Yrotation Xrotation Zrotation
                    JOINT leftRingDistal
                    {
                      OFFSET 0.1983118991198174 -0.002467117924596085 -0.004538141969590015
                      CHANNELS 3 Yrotation Xrotation Zrotation
                      End Site
                      {
                        OFFSET 0.1983118991198174 -0.002467117924596085 -0.004538141969590015
                      }
                    }
                  }
                }
                JOINT leftThumbProximal
                {
                  OFFSET 0.09767004258864787 -0.14930060425447422 -0.07008212897521154
                  CHANNELS 3 Yrotation Xrotation Zrotation
                  JOINT leftThumbIntermediate
                  {
                    OFFSET 0.36682123028154767 -0.015768465060082004 0.28693641268151077
                    CHANNELS 3 Yrotation Xrotation Zrotation
                    JOINT leftThumbDistal
                    {
                      OFFSET 0.21091084272403915 -0.016756648201192714 0.1933767059105508
                      CHANNELS 3 Yrotation Xrotation Zrotation
                      End Site
                      {
                        OFFSET 0.21091084272403915 -0.016756648201192714 0.1933767059105508
                      }
                    }
                  }
                }
              }
            }
          }
        }
        JOINT rightShoulder
        {
          OFFSET -0.37618174442811925 1.0539491987447769 0
          CHANNELS 3 Yrotation Xrotation Zrotation
          JOINT rightUpperArm
          {
            OFFSET -0.870284438 0 0
            CHANNELS 3 Yrotation Xrotation Zrotation
            JOINT rightLowerArm
            {
              OFFSET -2.1985273100003235 0 0
              CHANNELS 3 Yrotation Xrotation Zrotation
              JOINT rightHand
              {
                OFFSET -2.1468523139682802 0 0
                CHANNELS 3 Yrotation Xrotation Zrotation
                JOINT rightIndexProximal
                {
                  OFFSET -0.6585177834681599 0.07380250427007962 0.18382213159631788
                  CHANNELS 3 Yrotation Xrotation Zrotation
                  JOINT rightIndexIntermediate
                  {
                    OFFSET -0.3323021288626682 -0.009606893929485771 -0.012820872253340998
                    CHANNELS 3 Yrotation Xrotation Zrotation
                    JOINT rightIndexDistal
                    {
                      OFFSET -0.2045908926985518 -0.0071133989147997845 -0.006828784783599051
                      CHANNELS 3 Yrotation Xrotation Zrotation
                      End Site
                      {
                        OFFSET -0.2045908926985518 -0.0071133989147997845 -0.006828784783599051
                      }
                    }
                  }
                }
                JOINT rightLittleProximal
                {
                  OFFSET -0.6110054258835662 0.07380246363125398 -0.29175655876064077
                  CHANNELS 3 Yrotation Xrotation Zrotation
                  JOINT rightLittleIntermediate
                  {
                    OFFSET -0.3144281999999998 -2.5124724523095665e-9 1.8658118799974588e-7
                    CHANNELS 3 Yrotation Xrotation Zrotation
                    JOINT rightLittleDistal
                    {
                      OFFSET -0.18116185580251631 0.002815456192251098 0.0034826415518049436
                      CHANNELS 3 Yrotation Xrotation Zrotation
                      End Site
                      {
                        OFFSET -0.18116185580251631 0.002815456192251098 0.0034826415518049436
                      }
                    }
                  }
                }
                JOINT rightMiddleProximal
                {
                  OFFSET -0.6637478005691111 0.07380246480054087 0.02046981859247815
                  CHANNELS 3 Yrotation Xrotation Zrotation
                  JOINT rightMiddleIntermediate
                  {
                    OFFSET -0.3705733999999994 -2.9611069152224445e-9 9.35054791928458e-8
                    CHANNELS 3 Yrotation Xrotation Zrotation
                    JOINT rightMiddleDistal
                    {
                      OFFSET -0.22861063500000056 -1.82673876025774e-9 -1.6740782024515788e-7
                      CHANNELS 3 Yrotation Xrotation Zrotation
                      End Site
                      {
                        OFFSET -0.22861063500000056 -1.82673876025774e-9 -1.6740782024515788e-7
                      }
                    }
                  }
                }
                JOINT rightRingProximal
                {
                  OFFSET -0.6561845547265777 0.07380246406440083 -0.13588087571513918
                  CHANNELS 3 Yrotation Xrotation Zrotation
                  JOINT rightRingIntermediate
                  {
                    OFFSET -0.3437531000000005 -2.746796123886952e-9 1.4935781944558357e-7
                    CHANNELS 3 Yrotation Xrotation Zrotation
                    JOINT rightRingDistal
                    {
                      OFFSET -0.1983118991198174 -0.002467117924596085 -0.004538141969590015
                      CHANNELS 3 Yrotation Xrotation Zrotation
                      End Site
                      {
                        OFFSET -0.1983118991198174 -0.002467117924596085 -0.004538141969590015
                      }
                    }
                  }
                }
                JOINT rightThumbProximal
                {
                  OFFSET -0.09767004258864787 -0.14930060425447422 -0.07008212897521154
                  CHANNELS 3 Yrotation Xrotation Zrotation
                  JOINT rightThumbIntermediate
                  {
                    OFFSET -0.36682123028154767 -0.015768465060082004 0.28693641268151077
                    CHANNELS 3 Yrotation Xrotation Zrotation
                    JOINT rightThumbDistal
                    {
                      OFFSET -0.21091084272403915 -0.016756648201192714 0.1933767059105508
                      CHANNELS 3 Yrotation Xrotation Zrotation
                      End Site
                      {
                        OFFSET -0.21091084272403915 -0.016756648201192714 0.1933767059105508
                      }
                    }
                  }
                }
              }
            }
          }
        }
      }
    }
  }
  JOINT leftUpperLeg
  {
    OFFSET 0.7715603 -0.3993844658041501 0
    CHANNELS 3 Yrotation Xrotation Zrotation
    JOINT leftLowerLeg
    {
      OFFSET 0 -3.529830000249343 0
      CHANNELS 3 Yrotation Xrotation Zrotation
      JOINT leftFoot
      {
        OFFSET 0 -4.154939295409685 0.004208579085223096
        CHANNELS 3 Yrotation Xrotation Zrotation
        JOINT leftToes
        {
          OFFSET 0 -0.6353414391261847 1.10414981190622
          CHANNELS 3 Yrotation Xrotation Zrotation
          End Site
          {
            OFFSET 0 -0.6015820691747853 1.10414981190622
          }
        }
      }
    }
  }
  JOINT rightUpperLeg
  {
    OFFSET -0.7715603 -0.3993844658041501 0
    CHANNELS 3 Yrotation Xrotation Zrotation
    JOINT rightLowerLeg
    {
      OFFSET 0 -3.529830000249343 0
      CHANNELS 3 Yrotation Xrotation Zrotation
      JOINT rightFoot
      {
        OFFSET 0 -4.154939295409685 0.004208579085223096
        CHANNELS 3 Yrotation Xrotation Zrotation
        JOINT rightToes
        {
          OFFSET 0 -0.6353414391261847 1.10414981190622
          CHANNELS 3 Yrotation Xrotation Zrotation
          End Site
          {
            OFFSET 0 -0.6015820691747853 1.10414981190622
          }
        }
      }
    }
  }
}
MOTION
Frames: 4
Frame Time: 0.03333333333333333
-0.40785247629339044 8.71697425842285 1.6550901624076677 0.34510586800891235 -3.656428494210188 -3.2567210055299083 1.9931165446644723 11.303012343593533 9.273235840846587 0.37320411961534045 -0.05373965278943656 -3.0317520323019154 0 0 0 -2.567299153041754 1.738675481210927 1.153123063409423 -12.155200082284189 -20.777208704730594 3.6336846267243508 0 0 0 0 0 0 -14.219686596099187 0.9404958906131837 -6.535188752854035 33.10831999438004 -15.565156017658884 -58.84869952781258 -94.78387755856014 -0.00007951795605948969 0.00008782165255067551 -8.133857811954421 -45.737191381070375 4.415803228343976 -3.8815967460127063 0.13974524868205074 2.0323672302923326 0.4719517953422935 0.015756050997193956 -3.8143049562049542 0.7218920659255024 0.03854059594320911 -6.055936575142029 7.14781782025718 2.860292495664867 -30.48701309789091 -3.607425352655486 0.018494550100451024 -4.421478724242083 0.5703805348322463 0.04121460231095571 -4.801493751121462 -1.7597118067930135 -0.1425780782382271 -3.7975640755369096 0.5279932821784735 0.019911891139097103 -4.3593384268361834 0.868552015947967 0.054604999457452216 -7.1961041792975164 0.7117032941092515 -0.13851102185615094 -15.999429975387782 0.728233893768261 0.038539438679450234 -6.045457194278349 0.436523482601381 0.01382113387974212 -3.619605854697636 -8.59283964426925 -10.542613612602912 27.39987170412529 20.279870421072268 7.37382963989849 5.594043872158876 3.7894507629646657 0.17742274485468923 3.535408989565424 -0.5387314770954118 0.8044962535171853 14.974379980404787 -12.550191589722402 -19.55167340296189 42.26046927797325 87.03428500018259 0.000019404465387191972 0.000010234411448673652 32.266349091881665 -56.72349128283591 -30.883301837962186 4.694849235951654 0.12238609065875986 -0.7569312604591555 -1.754022174338169 0.22877712715123583 14.791209872154294 -0.7897461347123333 0.0436062230526605 6.41032274652053 -5.074906713861437 1.238655024591034 19.42871474578255 -4.159615006636792 1.327378916445512 37.19419362443524 -3.8395406834784294 1.048937980262285 32.621956810956505 1.6604874082947305 -0.06387710294892396 1.4009990632484068 -1.8217440299742325 0.2574769335955063 15.936242742470846 -1.4196836608462244 -0.08566387761924688 11.332827913043351 -1.5065092003267784 0.0921664656664426 8.772015912154059 -3.08394218276673 0.7089349490981848 25.970540726285286 -3.2365690792973147 0.020962402981747404 24.71914463820613 1.6915478950432106 -8.095988577116719 -18.43189780113932 -5.82939905167295 3.6049604633165617 -0.05108555454841002 0.2763466746294567 -1.3655895421895952 -2.2627312586200508 17.396874147005267 -13.125239285412729 13.780764160629568 2.621756649974645 25.718630770130165 1.399690501023114 3.4935361104390834 -8.952067635894904 -9.58390360536637 -0.000008960619403806168 -0.607562529079202 -0.0000018810102458086779 7.571104520853984 -6.282038183729848 2.396230255304431 -9.908940323117502 24.722294237555012 1.8512419398340803 -25.98826359597816 -14.594279235602427 4.697332998673947 0.00000473993267048592 -0.6585645320263613 -1.9968305430576768e-7
-0.40704721754247497 8.715039166537197 1.6619669670195676 0.36969152362182417 -3.806314183600494 -3.2670729766320146 1.972743124517174 11.141904208644585 9.250092285685666 0.3727936631488969 -0.0427236576407549 -3.0702634000185465 0 0 0 -2.6027758161327204 1.7498665956203876 1.219900813611387 -12.318970642129253 -20.521274424964222 3.752136170082159 0 0 0 0 0 0 -13.91957815922222 0.9422230943708488 -6.398433143369077 32.470030989986746 -14.264733275386511 -58.74958296070448 -94.76928960527613 -0.00007232427864803248 0.00008110324629040121 -8.213362449100595 -45.280605463213156 4.33239101401669 -3.8652148170366294 0.15255696436433694 2.2812945923974404 0.47260066944136553 0.015835600359190516 -3.8196884289859705 0.7221606528628202 0.038547329417356876 -6.058103189411357 7.146370500861796 2.825166216506588 -30.053080049041007 -3.5692923162382444 0.022718965680373446 -4.739108872209656 0.5671557575256057 0.04081706052000409 -4.774628532043983 -1.757540982432227 -0.12956246237213498 -3.549880733353052 0.5337223106527568 0.02034737742404901 -4.407076962540189 0.8724104426918214 0.05509883770199531 -7.228086998744207 0.7013922703404334 -0.13085290455007229 -15.701871943076156 0.7400837772401931 0.03978787949051438 -6.1442828819970625 0.435600928225811 0.013789244932870972 -3.611844187335044 -8.517177191518067 -10.54054066860624 27.09030774535118 19.758815300186054 7.247634534265623 5.401323263900371 3.500739921143313 0.0625185881687409 3.463934408818746 -0.7807859476271038 0.8164140448278256 15.003213922239286 -12.410307101533123 -18.580767649339382 42.20044631629321 87.05510223953638 0.000016368415569126047 -0.000010599788685148178 32.327536753771255 -56.611603403089106 -30.730748460047558 4.68188875561066 0.11270280969776575 -0.5015045648442089 -1.6747048584840818 0.2084483750891364 14.119504623093118 -0.7508083665921326 0.03934116566898122 6.088955927088668 -5.197738977363207 1.3119325088471772 19.39745441166567 -4.178476335632913 1.341097122090236 37.38506996836623 -3.845909983849883 1.052843050704199 32.68300523163484 1.6059418966353578 -0.053925058489692916 1.6355756043828305 -1.7780444623483527 0.24540483149495915 15.564455152687808 -1.3875972126669593 -0.1459643820385726 10.98450116190186 -1.5735929068024377 0.11675633499440313 8.718166908696043 -3.0799001363090537 0.7069471055894814 25.933572889387317 -3.2466464284055485 -0.04816740350003407 24.57386129871267 1.5827296318494612 -8.088847367486535 -18.42453659116907 -5.716821002754955 3.5664520294435853 -0.015336115515911259 0.43586600606953835 -1.4520642208704502 -2.2791002668337526 17.410246648471134 -13.00620667644464 13.84088376749471 2.6425720105800297 25.861068669533587 1.4394272646148094 3.453533519515809 -9.0785777192165 -9.574055790925394 -0.000009030568146949104 -0.5764112012868969 0.00000410538926943807 7.62324914761772 -6.117504758679139 2.448467963246757 -9.91327275602791 24.807388154924208 1.8148858428065793 -26.066037755723038 -14.678143307158772 4.781084643721071 0.000007822298948215467 -0.6262925272171461 -0.0000010436670534558497
-0.40601914579218085 8.712424364956942 1.6679925360250134 0.38251170537058565 -3.9811809923103527 -3.262066629476731 1.9558446316989604 11.034785304303758 9.192632362410988 0.37415293579144976 -0.043335219878095105 -3.072729100247161 0 0 0 -2.6382130551059024 1.762389546144812 1.2382130815207204 -12.53366554974629 -20.26085828256465 3.9113810817870154 0 0 0 0 0 0 -13.732866436853174 0.945572902939103 -6.2899383769293635 31.842390407642707 -12.886695149635385 -58.67384285621466 -94.48768122457119 -0.0000822839854362107 0.00008981574084887006 -8.188687360409025 -44.48658477355019 4.224410540780974 -3.8140445639586673 0.14728661494201797 2.2711222810305287 0.4723183467571345 0.015803982385120905 -3.8173220976174904 0.7214165086058162 0.03847642950311541 -6.051954130086302 7.163640822772039 2.7830415983198638 -29.36692290206398 -3.5759202490256814 0.021986831377618164 -4.684119205743299 0.5301940740328778 0.03675515476019139 -4.4664989179704655 -1.7288698316897309 -0.12044481847178264 -3.4031557999890163 0.5316532491061755 0.020178682079665267 -4.3898661446423235 0.8632054284667937 0.05393853878112635 -7.1511184225908915 0.7083495670573456 -0.1173949323345437 -15.332334129326362 0.7270390235133768 0.03840107729176969 -6.035637907557593 0.4117022346218167 0.012322414245979603 -3.4134714526731105 -8.74176054726466 -10.623641340524605 27.075749491971163 19.361175234454585 7.149776287878507 5.255701219614249 3.296359156607944 -0.03110199495472797 3.44168215779486 -0.9894453795371975 0.8271178387381013 15.030370232321797 -12.293450353759699 -17.48884731940335 42.26566049785543 86.95747124799695 0.000017975553004779877 0.000013626569399983413 31.7299693520362 -56.3796122912468 -29.998288296213445 4.68688128661089 0.10398370410982473 -0.2833972457292459 -1.5772123293157394 0.1848313626738601 13.296830731990402 -0.6859644418184675 0.03272586934680514 5.55421107940238 -5.37060635390101 1.4020692302931874 19.19623830083807 -4.2025906080984745 1.3587651083959547 37.6298084036158 -3.8546429878531643 1.0582867815032968 32.767220522696576 1.55636462643819 -0.043666420782286115 1.7393820356662688 -1.7162881140427173 0.2289030864491434 15.04016501305486 -1.345687804904472 -0.23564960788369396 10.482427091617128 -1.674503751989175 0.14440166442406524 8.627535723397713 -3.0674837000842956 0.7009026256879908 25.820569150647845 -3.2833051943053206 -0.16451593769109824 24.401637183810006 1.1470769049976866 -8.010428263574342 -18.32610907718695 -5.098033475161521 3.354249757142434 0.17953405240328305 0.5881102717779648 -1.51965331696815 -2.2561857256539337 17.445605723045915 -12.840911643288637 13.90490037473922 2.6488427748564134 25.962585504573102 1.4670362318106012 3.4132917416525634 -9.184198742076473 -9.704844345252493 -0.000002853843825602409 -0.5772883380801775 -0.0000018643575176174225 7.6565737970643655 -5.955874437887424 2.469235720938266 -9.90957483485209 24.948515895681883 1.7991487743194825 -26.126856412909348 -14.785920218565238 4.865242621262581 -0.000004413763469943166 -0.5436826792170019 -0.0000035799544786446173
-0.405494137243791 8.709902329878373 1.6738722903949226 0.37788560379822367 -4.148227540647708 -3.2468596313656355 1.9482210348001914 10.94089232068963 9.086887522255955 0.3762821668337387 -0.03630517593651831 -3.0262768946271614 0 0 0 -2.681755190062303 1.7392668851099329 1.2401864748463485 -12.80848519757938 -19.974655489806104 4.08843077621576 0 0 0 0 0 0 -13.573429390559504 0.9558569550324552 -6.141958529196925 31.2113758476006 -11.394681488764876 -58.740239515189465 -94.0577814366235 -0.00006715983135623045 0.00008491162312820516 -8.217670699731565 -43.56189354862284 4.1439658851195915 -3.7674024043445122 0.1359706511044968 2.161700293306323 0.4708891189515347 0.015712491864326127 -3.805435040085741 0.7196434867814979 0.03827641964140291 -6.037167775876639 7.1712318967320705 2.7134684549261743 -28.33168892797989 -3.5018191537548313 0.03069982748821397 -5.302107735236926 0.4919505485105218 0.032757742456451626 -4.148141746953939 -1.7044504365586053 -0.11189499820454517 -3.2440865648653583 0.5490323188101894 0.02154345268390411 -4.534288560812862 0.8525572834392876 0.052592113813753553 -7.062295709348519 0.7039601121174174 -0.10205091753304929 -14.795682322763826 0.763968780745694 0.04238850470140778 -6.343335112383449 0.3964780706289877 0.011425983581161833 -3.2872018665389837 -8.351422079824468 -10.724799191963209 26.968949577029107 18.07925793276494 6.827690675199633 4.788056672366699 2.8645615295540923 -0.22794084922253918 3.390308015772891 -1.1586775936231433 0.8355203894639475 15.062240568297955 -12.27032659330273 -16.224696338779392 42.45678107631219 86.90938169980281 -0.000014670624284608282 -0.000012113467277153256 30.808424015409724 -56.00130435264557 -29.072440209878103 4.723484840587839 0.09749576808846676 -0.1306377161666884 -1.4879102310040866 0.1644571471291597 12.545457835309417 -0.6249804298403445 0.02710755273608644 5.051641642969438 -5.561259921057108 1.4792461679020665 18.663033726755458 -4.21607549683975 1.3686923985580277 37.76670845685047 -3.856739676118977 1.0595870873973514 32.78746733418699 1.532701165345364 -0.03302962271684183 1.6294643098739001 -1.6526377676027375 0.212513992585414 14.501303177030998 -1.3131009292721443 -0.3443623886683995 10.023487469849686 -1.7842117582355697 0.1686302502598999 8.405549802971167 -3.043307616495163 0.6892322286537786 25.600388761479653 -3.340299318687576 -0.3109924196750276 24.239042756783245 0.5690274499454534 -7.840770455449235 -18.11034553921538 -4.60879329475098 3.1842340549855996 0.331490173105172 0.6581603897565717 -1.5480923558392652 -2.23912217087364 17.498594079105374 -12.569632403804468 13.969624955013416 2.6132747838036474 25.851533705422824 1.4932730975390598 3.447640518658564 -9.178081633814969 -10.237777445271876 0.000029177220990288415 -0.5227643188936424 -1.5653239669671406e-7 7.6692183497066715 -5.7975183551275284 2.4700961034081788 -9.892729840315859 25.08904193424305 1.7974244197296225 -26.12290552839215 -14.900378442608144 4.929419453783175 -0.000004454378355478121 -0.486508107846178 -0.000001001122048372067
